<svg xmlns="http://www.w3.org/2000/svg" xmlns:xlink="http://www.w3.org/1999/xlink" version="1.1" x="0px" y="0px" viewBox="0 0 100 125" enable-background="new 0 0 100 100" xml:space="preserve"><g><path d="M58.115,63.382c-0.532,1.993-0.296,5.1-0.295,4.316c0,0.498-0.214,0.334-0.443,0.146c-0.107-0.088-0.172-0.234-0.39-0.252   c-0.06,0.365-0.283,0.591-0.673,0.621c-0.53,0.04-1.066-0.091-1.386-0.466 M54.928,67.746c0.56,0.091,1.424-6.424,1.308-7.004   c-0.291-1.462-0.641-2.909-1.124-4.322c-0.129-0.376-0.253-0.531-0.598-0.19c-0.157,0.155-0.41,0.225-0.606,0.17   c-0.763-0.215-1.508-0.138-2.256,0.048c-0.05,0.012-0.11,0.01-0.161-0.005c-0.679-0.196-1.31,0.012-1.947,0.211   c-0.84,0.262-1.681,0.52-2.527,0.761c-3.262,0.927-6.481,2.025-9.846,2.554c-3.14,0.493-6.3,0.796-9.47,1.022   c-1.449,0.103-2.823-0.052-4.104-0.781c-0.28-0.16-0.593-0.263-0.869-0.428c-0.351-0.21-0.513-0.092-0.622,0.262   c-0.111,0.36-0.263,0.707-0.382,1.064c-0.478,1.445-1.081,2.817-2.217,3.888c-0.503,0.474-1.073,0.738-1.783,0.759   c-1.341,0.038-2.69-0.148-4.024,0.168c-0.455,0.108-0.62-0.135-0.394-0.535c0.19-0.336,0.066-0.415-0.243-0.416   c-0.503-0.002-1.006-0.009-1.508,0.006c-0.798,0.024-1.06,0.387-0.848,1.153c0.023,0.084,0.069,0.168-0.014,0.246   c-0.534-0.253-0.535-0.255-1.294-0.142c-0.186,0.028-0.356-0.011-0.523-0.085c0-0.108,0-0.216,0-0.323   c0.159-0.17,0.332-0.329,0.475-0.512c0.888-1.135,1.934-1.877,3.477-1.457c0.205,0.056,0.427,0.046,0.642,0.068   c1.464,0.152,2.927,0.32,4.403,0.281c0.317-0.008,0.546-0.015,0.503-0.466c-0.043-0.447,0.233-0.811,0.525-1.144   c0.169-0.193,0.426-0.312,0.539-0.563c-0.459-0.295-0.978-0.218-1.481-0.36c0.272-0.241,0.562-0.15,0.814-0.218   c0.344-0.092,0.776,0.218,1.023-0.1c0.22-0.284,0.27-0.695,0.417-1.041c0.182-0.429,0.101-0.642-0.409-0.615   c-0.21,0.011-0.448,0.062-0.695-0.119c0.33-0.186,0.64-0.187,0.932-0.243c0.468-0.09,1.042-0.902,0.956-1.363   c-0.037-0.199-0.19-0.18-0.33-0.196c-0.241-0.029-0.496,0.065-0.836-0.123c0.432-0.136,0.78-0.246,1.129-0.357   c0.31-0.099,0.794-0.909,0.728-1.212c-0.045-0.207-0.213-0.157-0.346-0.16c-0.328-0.007-0.657-0.002-1.139-0.002   c0.372-0.156,0.606-0.322,0.855-0.346c0.916-0.088,1.175-0.745,1.37-1.48c0.005-0.017,0.009-0.035,0.016-0.051   c0.149-0.326,0.04-0.51-0.306-0.579c-0.379-0.075-0.756-0.162-1.134-0.243c0.327-0.188,0.657-0.228,0.993-0.237   c0.867-0.022,0.845-0.031,1.159-0.849c0.169-0.44,0.042-0.618-0.388-0.717c-0.306-0.07-0.664-0.02-0.993-0.355   c0.378-0.017,0.668-0.076,0.943-0.034c0.661,0.102,0.924-0.201,1.143-0.803c1.661-4.554,3.284-9.123,5.188-13.584   c0.124-0.29,0.107-0.547,0.011-0.83c-0.295-0.867-0.578-1.738-0.862-2.608c-0.208-0.636-0.333-1.284-0.278-1.96   c0.069-0.848,0.416-1.207,1.252-1.205c0.293,0.001,0.37-0.092,0.376-0.364c0.017-0.791,0.379-1.381,1.11-1.698   c0.75-0.326,1.33,0.061,1.841,0.544c0.769,0.728,1.509,1.488,2.26,2.235c1.107,1.101,2.056,2.357,3.251,3.369   c1.383,1.172,2.798,2.307,4.211,3.443c2.758,2.215,5.531,4.411,8.359,6.536c0.366,0.275,0.644,0.349,1.042,0.07   c0.617-0.433,1.289-0.779,1.969-1.109c4.426-2.146,8.847-4.304,13.274-6.448c1.144-0.554,2.267-1.207,3.624-1.004   c0.232,0.035,0.354-0.113,0.467-0.291c0.28-0.442,0.695-0.729,1.176-0.904c1.372-0.498,2.687-0.357,3.91,0.442   c0.319,0.208,0.462,0.209,0.634-0.168c2.37-5.214,4.754-10.421,7.135-15.63c0.082-0.18,0.138-0.379,0.445-0.59   c-2.34,6.01-4.624,11.877-6.908,17.745c1.924-1.473,3.963-2.634,6.211-3.387c2.454-0.822,4.857-1.773,7.272-2.695   c0.862-0.329,1.696-0.739,2.601-0.96c-0.29,0.287-0.675,0.392-1.026,0.556c-2.521,1.177-5.017,2.411-7.601,3.448   c-2.389,0.959-4.531,2.307-6.5,3.964c-0.538,0.453-0.631,0.86-0.497,1.515c0.366,1.794,0.641,3.592,0.267,5.443   c-0.316,1.562-0.963,3.002-1.488,4.484c-0.214,0.604-0.721,1.097-1.218,1.535c-0.143,0.126-0.352,0.259-0.537,0.117   c-0.195-0.15-0.078-0.38,0.005-0.545c0.162-0.323,0.305-0.645,0.348-1.008c0.025-0.208-0.117-0.283-0.252-0.371   c-0.101-0.066-0.204-0.084-0.283,0.029c-0.436,0.622-1.178,1.096-0.971,2.029c0.021,0.095,0.05,0.236-0.095,0.269   c-0.119,0.026-0.197-0.075-0.253-0.165c-0.066-0.106-0.14-0.217-0.166-0.336c-0.269-1.24-0.745-2.437-0.738-3.734   c0.002-0.424-0.05-0.848-0.078-1.273c-0.415,0.899-0.885,1.739-1.529,2.471c-0.189,0.214-0.132,0.421-0.047,0.649   c0.201,0.538,0.418,1.072,0.578,1.622c0.083,0.285,0.229,0.456,0.469,0.611c1.585,1.021,3.172,2.04,4.737,3.091   c0.773,0.52,1.594,1.01,2.199,1.723c1.429,1.683,2.835,3.387,4.038,5.247c0.397,0.614,0.971,0.926,1.732,0.851   c0.374-0.037,0.756,0.005,1.13-0.035c1.435-0.157,2.348,0.534,2.968,1.757c0.184,0.362,0.179,0.548-0.283,0.476   c-0.644-0.101-1.275-0.111-1.884,0.169c-0.017,0.008-0.056-0.034-0.114-0.071c0.083-0.172,0.174-0.344,0.25-0.522   c0.096-0.223,0.099-0.447-0.173-0.53c-0.466-0.141-0.952-0.295-1.328,0.195c-0.203,0.265-0.472,0.236-0.735,0.171   c-1.427-0.35-2.63-1.04-3.433-2.315c-0.775-1.23-1.523-2.479-2.453-3.605c-0.159-0.193-0.309-0.423-0.603-0.393   c-0.607,0.062-1.058-0.251-1.519-0.577c-1.95-1.378-3.786-2.916-5.823-4.169c-0.744-0.458-1.413-0.976-1.945-1.674   c-0.406-0.532-0.417-0.517-0.928-0.053c-1.196,1.087-2.124,2.44-3.422,3.427c-0.103,0.078-0.177,0.236-0.201,0.368   c-0.096,0.518-0.451,0.802-0.881,1.018c-0.64,0.32-1.327,0.436-2.036,0.416c-0.18-0.005-0.349-0.019-0.527,0.045   c-0.878,0.317-1.76,0.622-2.641,0.929c-0.688,0.24-0.816,0.422-0.743,1.148c0.122,1.199,0.374,2.375,0.656,3.545   c0.064,0.266-0.031,2.269,0.262,2.258 M33.968,51.473c0.132-0.248,0.534-0.362,0.467-0.679c-0.088-0.416-0.284-0.811-0.439-1.212   c-0.083-0.214-0.241-0.18-0.397-0.094c-0.23,0.128-0.456,0.264-0.816,0.474c0.195-0.446,0.404-0.702,0.653-0.918   c0.206-0.179,0.29-0.359,0.144-0.605c-0.218-0.365-0.151-0.994-0.537-1.109c-0.395-0.117-0.595,0.487-0.931,0.713   c-0.012,0.008-0.035-0.001-0.096-0.006c0.092-0.466,0.279-0.872,0.612-1.204c0.147-0.147,0.258-0.278,0.173-0.513   c-0.896-2.458-1.784-4.918-2.723-7.512c-0.383,0.988-0.732,1.86-1.061,2.739c-1.938,5.177-3.871,10.355-5.802,15.534   c-0.073,0.196-0.273,0.453-0.132,0.595c0.181,0.182,0.417-0.073,0.63-0.132c0.285-0.079,0.492-0.259,0.699-0.472   c1.243-1.278,2.58-2.301,4.482-2.526c2.046-0.242,4.013-0.94,6.004-1.484c0.287-0.078,0.391-0.226,0.253-0.511   c-0.062-0.129-0.105-0.267-0.158-0.401c-0.297-0.748-0.297-0.748-1.124-0.41C33.921,51.598,33.937,51.532,33.968,51.473z    M31.833,37.583c1.548,4.758,3.108,9.511,4.764,14.232c0.242,0.689,0.24,0.683,0.959,0.484c1.542-0.427,2.868-1.301,4.253-2.052   c0.394-0.214,0.772-0.457,1.168-0.667c0.241-0.128,0.308-0.224,0.112-0.478c-2.602-3.362-5.282-6.66-8.102-9.842   c-0.161-0.182-0.341-0.295-0.576-0.364c-1.171-0.343-2.129-0.943-2.545-2.176c-0.043-0.128-0.097-0.28-0.338-0.26   C31.551,36.887,31.718,37.23,31.833,37.583z M68.992,36.914c-1.776,0.821-3.534,1.68-5.295,2.531   c-3.28,1.586-6.559,3.175-9.835,4.767c-0.338,0.164-0.664,0.357-0.989,0.546c-0.098,0.057-0.282,0.098-0.202,0.261   c0.076,0.154,0.271,0.143,0.382,0.069c0.346-0.232,0.731-0.375,1.106-0.54c0.727-0.32,1.482-0.584,2.184-0.952   c0.653-0.343,1.359-0.518,2.033-0.79c1.327-0.537,2.576-1.263,3.963-1.656c0.205-0.058,0.401-0.1,0.447-0.386   c0.023-0.143,0.128-0.275,0.376-0.075c0.262,0.21,0.621-0.049,0.886-0.177c1.734-0.844,3.465-1.695,5.237-2.46   c0.303-0.131,0.437-0.336,0.442-0.61C69.74,36.821,69.555,36.653,68.992,36.914z M72.758,37.706   c0.274-0.023,0.267-0.101,0.302-0.271c0.055-0.263,0.095-0.532,0.179-0.785c0.261-0.78,0.724-0.997,1.506-0.715   c0.168,0.06,0.32,0.162,0.486,0.23c0.143,0.058,0.313,0.315,0.437,0.047c0.083-0.179,0.028-0.398-0.228-0.522   c-0.596-0.288-1.222-0.433-1.874-0.414c-0.43,0.013-0.85,0.134-1.248,0.313c-0.796,0.359-1.021,0.902-0.904,2.194   C71.845,37.53,72.311,37.743,72.758,37.706z M30.565,33.508c0.175,0.681,0.655,1.028,1.326,0.975   c0.122-0.01,0.137-0.063,0.157-0.16c0.109-0.514-0.093-0.797-0.627-0.928c-0.304-0.074-0.597-0.199-0.97-0.326   C30.504,33.27,30.535,33.389,30.565,33.508z M67.853,46.868c0.446-0.077,0.79-0.359,1.165-0.58   c0.091-0.053,0.063-0.105,0.015-0.171c-0.265-0.358-1.336-0.266-1.533,0.136c-0.038,0.077-0.051,0.167-0.067,0.226   C67.472,46.75,67.57,46.917,67.853,46.868z"/></g><text x="0" y="115" fill="#000000" font-size="5px" font-weight="bold" font-family="'Helvetica Neue', Helvetica, Arial-Unicode, Arial, Sans-serif">Created by Marie Van den Broeck</text><text x="0" y="120" fill="#000000" font-size="5px" font-weight="bold" font-family="'Helvetica Neue', Helvetica, Arial-Unicode, Arial, Sans-serif">from the Noun Project</text></svg>